# xmcd
# Track frame offsets:
# 150
# 17250
# 36353
# 53091
# 69539
# 84704
# 107782
# 124927
# 142656
# 158624
# 178138
# 194570
# 206531
# 223684
# 241991
# 258758
# 276052
# 293519
#
# Disc length: 4191 seconds
# Revision: 0
# Processed by: cddbd v1.5.2PL0 Copyright (c) Steve Scherf et al.
# Submitted via: VisiTrax 2.11.1.266 - For more info visit www.synapsa.com
#
DISCID=fe105d12
DTITLE=Kenny Rogers - All The Hits And All New Love Songs [CD2)
DYEAR=1999
DGENRE=
TTITLE0=Ain't No Sunshine
TTITLE1=The Kind Of Fool Love Makes
TTITLE2=Let It Be Me
TTITLE3=You Don't Know Me
TTITLE4=How Sweet It Is (To Be Loved By You)
TTITLE5=I Will Remember You
TTITLE6=Buy Me A Rose
TTITLE7=Three Times A Lady
TTITLE8=Share Your Love With Me
TTITLE9=I Can't Make You Love Me
TTITLE10=I Don't Need You
TTITLE11=This Masquerade
TTITLE12=Since I Fell For You
TTITLE13=Don't Fall In Love With A Dreamer
TTITLE14=Loving Arms
TTITLE15=Love Don't Live Here Anymore
TTITLE16=You Looked So Beautiful
TTITLE17=Small Dark Clouds
EXTD=
EXTT0=
EXTT1=
EXTT2=
EXTT3=
EXTT4=
EXTT5=
EXTT6=
EXTT7=
EXTT8=
EXTT9=
EXTT10=
EXTT11=
EXTT12=
EXTT13=
EXTT14=
EXTT15=
EXTT16=
EXTT17=
PLAYORDER=
